<svg width="64" height="27" viewBox="0 0 64 27" fill="none" xmlns="http://www.w3.org/2000/svg">
<path d="M21.9538 12H18.8601V3.27273H21.9794C22.8572 3.27273 23.6129 3.44744 24.2464 3.79688C24.88 4.14347 25.3672 4.64205 25.7081 5.29261C26.0518 5.94318 26.2237 6.72159 26.2237 7.62784C26.2237 8.53693 26.0518 9.31818 25.7081 9.97159C25.3672 10.625 24.8771 11.1264 24.2379 11.4759C23.6016 11.8253 22.8402 12 21.9538 12ZM20.7053 10.419H21.8771C22.4226 10.419 22.8814 10.3224 23.2536 10.1293C23.6286 9.93324 23.9098 9.63068 24.0973 9.22159C24.2876 8.80966 24.3828 8.27841 24.3828 7.62784C24.3828 6.98295 24.2876 6.45597 24.0973 6.04688C23.9098 5.63778 23.63 5.33665 23.2578 5.14347C22.8857 4.95028 22.4268 4.85369 21.8814 4.85369H20.7053V10.419ZM30.2326 12.1278C29.6303 12.1278 29.1104 12.0199 28.6729 11.804C28.2354 11.5881 27.8988 11.2955 27.663 10.9261C27.43 10.554 27.3136 10.1392 27.3136 9.68182C27.3136 9.34091 27.3817 9.03835 27.5181 8.77415C27.6545 8.50994 27.8448 8.26705 28.0891 8.04545C28.3335 7.82102 28.6175 7.59801 28.9414 7.37642L30.6332 6.2642C30.8519 6.125 31.0124 5.97869 31.1147 5.82528C31.217 5.66903 31.2681 5.5 31.2681 5.31818C31.2681 5.14489 31.1985 4.98437 31.0593 4.83665C30.9201 4.68892 30.7227 4.61648 30.467 4.61932C30.2965 4.61932 30.1488 4.65767 30.0238 4.73438C29.8988 4.80824 29.8008 4.90625 29.7298 5.02841C29.6616 5.14773 29.6275 5.28125 29.6275 5.42898C29.6275 5.6108 29.6786 5.79545 29.7809 5.98295C29.8832 6.17045 30.0195 6.36932 30.19 6.57955C30.3604 6.78693 30.5465 7.01136 30.7482 7.25284L34.886 12H32.994L29.5423 8.15625C29.315 7.89773 29.0877 7.62784 28.8604 7.34659C28.636 7.0625 28.4485 6.76136 28.2979 6.44318C28.1474 6.12216 28.0721 5.77415 28.0721 5.39915C28.0721 4.97585 28.1701 4.59517 28.3661 4.2571C28.565 3.91903 28.8434 3.65199 29.2013 3.45597C29.5593 3.2571 29.9769 3.15767 30.4542 3.15767C30.9201 3.15767 31.3221 3.25284 31.6602 3.44318C32.0011 3.63068 32.2624 3.88068 32.4442 4.19318C32.6289 4.50284 32.7212 4.84375 32.7212 5.21591C32.7212 5.62784 32.619 6.00142 32.4144 6.33665C32.2127 6.66903 31.9286 6.96733 31.5621 7.23153L29.7809 8.5142C29.5394 8.69034 29.3604 8.87074 29.244 9.0554C29.1303 9.23722 29.0735 9.41193 29.0735 9.57955C29.0735 9.78693 29.1246 9.97301 29.2269 10.1378C29.3292 10.3026 29.4741 10.4332 29.6616 10.5298C29.8491 10.6236 30.0692 10.6705 30.3221 10.6705C30.6289 10.6705 30.9315 10.6009 31.2298 10.4616C31.5309 10.3196 31.8036 10.1193 32.0479 9.8608C32.2951 9.59943 32.4925 9.28977 32.6403 8.93182C32.788 8.57386 32.8619 8.17756 32.8619 7.7429H34.3661C34.3661 8.27699 34.3079 8.75852 34.1914 9.1875C34.0749 9.61364 33.913 9.9858 33.7056 10.304C33.4982 10.6193 33.261 10.8778 32.994 11.0795C32.9087 11.1335 32.8263 11.1847 32.7468 11.233C32.6673 11.2812 32.5849 11.3324 32.4996 11.3864C32.1758 11.6477 31.8136 11.8366 31.413 11.9531C31.0153 12.0696 30.6218 12.1278 30.2326 12.1278ZM35.6765 3.27273H37.9521L40.3555 9.13636H40.4577L42.8612 3.27273H45.1367V12H43.3469V6.3196H43.2745L41.016 11.9574H39.7972L37.5387 6.2983H37.4663V12H35.6765V3.27273Z" fill="black"/>
<path d="M2.98295 25.1136C2.47159 25.1136 2.03125 24.9929 1.66193 24.7514C1.29261 24.5099 1.00852 24.1773 0.809659 23.7536C0.610795 23.3298 0.511364 22.8456 0.511364 22.3011C0.511364 21.7472 0.613163 21.2583 0.816761 20.8345C1.02273 20.4084 1.30919 20.0758 1.67614 19.8366C2.04545 19.5952 2.47633 19.4744 2.96875 19.4744C3.35227 19.4744 3.69792 19.5455 4.00568 19.6875C4.31345 19.8295 4.56558 20.0284 4.76207 20.2841C4.95857 20.5398 5.08049 20.8381 5.12784 21.179H4.28977C4.22585 20.9304 4.08381 20.7102 3.86364 20.5185C3.64583 20.3243 3.35227 20.2273 2.98295 20.2273C2.65625 20.2273 2.36979 20.3125 2.12358 20.483C1.87973 20.651 1.68916 20.889 1.55185 21.1967C1.4169 21.5021 1.34943 21.8608 1.34943 22.2727C1.34943 22.6941 1.41572 23.0611 1.5483 23.3736C1.68324 23.6861 1.87263 23.9287 2.11648 24.1016C2.36269 24.2744 2.65152 24.3608 2.98295 24.3608C3.20076 24.3608 3.39844 24.3229 3.57599 24.2472C3.75355 24.1714 3.90388 24.0625 4.02699 23.9205C4.15009 23.7784 4.23769 23.608 4.28977 23.4091H5.12784C5.08049 23.7311 4.9633 24.0211 4.77628 24.2791C4.59162 24.5348 4.34659 24.7384 4.04119 24.8899C3.73816 25.0391 3.38542 25.1136 2.98295 25.1136ZM7.19105 17.7273V25H6.35298V17.7273H7.19105ZM8.72603 25V19.5455H9.5641V25H8.72603ZM9.15217 18.6364C8.98881 18.6364 8.84795 18.5807 8.72958 18.4695C8.61358 18.3582 8.55558 18.2244 8.55558 18.0682C8.55558 17.9119 8.61358 17.7782 8.72958 17.6669C8.84795 17.5556 8.98881 17.5 9.15217 17.5C9.31552 17.5 9.4552 17.5556 9.5712 17.6669C9.68957 17.7782 9.74876 17.9119 9.74876 18.0682C9.74876 18.2244 9.68957 18.3582 9.5712 18.4695C9.4552 18.5807 9.31552 18.6364 9.15217 18.6364ZM11.9371 21.7188V25H11.0991V19.5455H11.9087V20.3977H11.9798C12.1076 20.1207 12.3017 19.8982 12.5621 19.7301C12.8226 19.5597 13.1587 19.4744 13.5707 19.4744C13.94 19.4744 14.2631 19.5502 14.5401 19.7017C14.8171 19.8509 15.0326 20.0781 15.1864 20.3835C15.3403 20.6866 15.4173 21.0701 15.4173 21.5341V25H14.5792V21.5909C14.5792 21.1624 14.4679 20.8286 14.2454 20.5895C14.0228 20.348 13.7174 20.2273 13.3292 20.2273C13.0617 20.2273 12.8226 20.2853 12.6119 20.4013C12.4035 20.5173 12.239 20.6866 12.1183 20.9091C11.9975 21.1316 11.9371 21.4015 11.9371 21.7188ZM16.9487 25V19.5455H17.7868V25H16.9487ZM17.3748 18.6364C17.2115 18.6364 17.0706 18.5807 16.9522 18.4695C16.8362 18.3582 16.7782 18.2244 16.7782 18.0682C16.7782 17.9119 16.8362 17.7782 16.9522 17.6669C17.0706 17.5556 17.2115 17.5 17.3748 17.5C17.5382 17.5 17.6779 17.5556 17.7939 17.6669C17.9122 17.7782 17.9714 17.9119 17.9714 18.0682C17.9714 18.2244 17.9122 18.3582 17.7939 18.4695C17.6779 18.5807 17.5382 18.6364 17.3748 18.6364ZM21.5376 25.1136C21.0263 25.1136 20.5859 24.9929 20.2166 24.7514C19.8473 24.5099 19.5632 24.1773 19.3643 23.7536C19.1655 23.3298 19.0661 22.8456 19.0661 22.3011C19.0661 21.7472 19.1679 21.2583 19.3714 20.8345C19.5774 20.4084 19.8639 20.0758 20.2308 19.8366C20.6001 19.5952 21.031 19.4744 21.5234 19.4744C21.907 19.4744 22.2526 19.5455 22.5604 19.6875C22.8681 19.8295 23.1203 20.0284 23.3168 20.2841C23.5133 20.5398 23.6352 20.8381 23.6825 21.179H22.8445C22.7805 20.9304 22.6385 20.7102 22.4183 20.5185C22.2005 20.3243 21.907 20.2273 21.5376 20.2273C21.2109 20.2273 20.9245 20.3125 20.6783 20.483C20.4344 20.651 20.2438 20.889 20.1065 21.1967C19.9716 21.5021 19.9041 21.8608 19.9041 22.2727C19.9041 22.6941 19.9704 23.0611 20.103 23.3736C20.2379 23.6861 20.4273 23.9287 20.6712 24.1016C20.9174 24.2744 21.2062 24.3608 21.5376 24.3608C21.7554 24.3608 21.9531 24.3229 22.1307 24.2472C22.3082 24.1714 22.4586 24.0625 22.5817 23.9205C22.7048 23.7784 22.7924 23.608 22.8445 23.4091H23.6825C23.6352 23.7311 23.518 24.0211 23.331 24.2791C23.1463 24.5348 22.9013 24.7384 22.5959 24.8899C22.2929 25.0391 21.9401 25.1136 21.5376 25.1136ZM26.5128 25.1278C26.1671 25.1278 25.8535 25.0627 25.5717 24.9325C25.29 24.8 25.0663 24.6094 24.9006 24.3608C24.7348 24.1098 24.652 23.8068 24.652 23.4517C24.652 23.1392 24.7135 22.8859 24.8366 22.6918C24.9598 22.4953 25.1243 22.3414 25.3303 22.2301C25.5362 22.1188 25.7635 22.036 26.0121 21.9815C26.263 21.9247 26.5152 21.8797 26.7685 21.8466C27.0999 21.804 27.3686 21.772 27.5746 21.7507C27.7829 21.727 27.9344 21.688 28.0291 21.6335C28.1262 21.5791 28.1747 21.4844 28.1747 21.3494V21.321C28.1747 20.9706 28.0788 20.6984 27.8871 20.5043C27.6977 20.3101 27.41 20.2131 27.0241 20.2131C26.6241 20.2131 26.3104 20.3007 26.0831 20.4759C25.8558 20.651 25.696 20.8381 25.6037 21.0369L24.8082 20.7528C24.9503 20.4214 25.1397 20.1634 25.3764 19.9787C25.6155 19.7917 25.8759 19.6615 26.1577 19.5881C26.4418 19.5123 26.7211 19.4744 26.9957 19.4744C27.1709 19.4744 27.3722 19.4957 27.5994 19.5384C27.8291 19.5786 28.0504 19.6626 28.2635 19.7905C28.4789 19.9183 28.6577 20.1113 28.7997 20.3693C28.9418 20.6274 29.0128 20.973 29.0128 21.4062V25H28.1747V24.2614H28.1321C28.0753 24.3797 27.9806 24.5064 27.848 24.6413C27.7154 24.7763 27.5391 24.8911 27.3189 24.9858C27.0987 25.0805 26.83 25.1278 26.5128 25.1278ZM26.6406 24.375C26.9721 24.375 27.2514 24.3099 27.4787 24.1797C27.7083 24.0495 27.8812 23.8814 27.9972 23.6754C28.1155 23.4695 28.1747 23.2528 28.1747 23.0256V22.2585C28.1392 22.3011 28.0611 22.3402 27.9403 22.3757C27.822 22.4089 27.6847 22.4384 27.5284 22.4645C27.3745 22.4882 27.2242 22.5095 27.0774 22.5284C26.933 22.545 26.8158 22.5592 26.7259 22.571C26.508 22.5994 26.3045 22.6456 26.1151 22.7095C25.928 22.7711 25.7765 22.8646 25.6605 22.9901C25.5469 23.1132 25.4901 23.2812 25.4901 23.4943C25.4901 23.7855 25.5978 24.0057 25.8132 24.1548C26.031 24.3016 26.3068 24.375 26.6406 24.375ZM31.3805 17.7273V25H30.5424V17.7273H31.3805ZM37.9439 25.1136C37.4325 25.1136 36.9922 24.9929 36.6229 24.7514C36.2536 24.5099 35.9695 24.1773 35.7706 23.7536C35.5717 23.3298 35.4723 22.8456 35.4723 22.3011C35.4723 21.7472 35.5741 21.2583 35.7777 20.8345C35.9837 20.4084 36.2701 20.0758 36.6371 19.8366C37.0064 19.5952 37.4373 19.4744 37.9297 19.4744C38.3132 19.4744 38.6589 19.5455 38.9666 19.6875C39.2744 19.8295 39.5265 20.0284 39.723 20.2841C39.9195 20.5398 40.0414 20.8381 40.0888 21.179H39.2507C39.1868 20.9304 39.0447 20.7102 38.8246 20.5185C38.6068 20.3243 38.3132 20.2273 37.9439 20.2273C37.6172 20.2273 37.3307 20.3125 37.0845 20.483C36.8407 20.651 36.6501 20.889 36.5128 21.1967C36.3778 21.5021 36.3104 21.8608 36.3104 22.2727C36.3104 22.6941 36.3767 23.0611 36.5092 23.3736C36.6442 23.6861 36.8336 23.9287 37.0774 24.1016C37.3236 24.2744 37.6125 24.3608 37.9439 24.3608C38.1617 24.3608 38.3594 24.3229 38.5369 24.2472C38.7145 24.1714 38.8648 24.0625 38.9879 23.9205C39.111 23.7784 39.1986 23.608 39.2507 23.4091H40.0888C40.0414 23.7311 39.9242 24.0211 39.7372 24.2791C39.5526 24.5348 39.3075 24.7384 39.0021 24.8899C38.6991 25.0391 38.3464 25.1136 37.9439 25.1136ZM42.152 17.7273V25H41.3139V17.7273H42.152ZM45.9029 25.1136C45.4105 25.1136 44.9784 24.9964 44.6067 24.7621C44.2374 24.5277 43.9486 24.1998 43.7402 23.7784C43.5343 23.357 43.4313 22.8646 43.4313 22.3011C43.4313 21.733 43.5343 21.237 43.7402 20.8132C43.9486 20.3894 44.2374 20.0604 44.6067 19.826C44.9784 19.5916 45.4105 19.4744 45.9029 19.4744C46.3953 19.4744 46.8262 19.5916 47.1955 19.826C47.5672 20.0604 47.856 20.3894 48.062 20.8132C48.2703 21.237 48.3745 21.733 48.3745 22.3011C48.3745 22.8646 48.2703 23.357 48.062 23.7784C47.856 24.1998 47.5672 24.5277 47.1955 24.7621C46.8262 24.9964 46.3953 25.1136 45.9029 25.1136ZM45.9029 24.3608C46.2769 24.3608 46.5847 24.2649 46.8262 24.0732C47.0676 23.8814 47.2464 23.6293 47.3624 23.3168C47.4784 23.0043 47.5364 22.6657 47.5364 22.3011C47.5364 21.9366 47.4784 21.5968 47.3624 21.282C47.2464 20.9671 47.0676 20.7126 46.8262 20.5185C46.5847 20.3243 46.2769 20.2273 45.9029 20.2273C45.5288 20.2273 45.2211 20.3243 44.9796 20.5185C44.7381 20.7126 44.5594 20.9671 44.4434 21.282C44.3274 21.5968 44.2694 21.9366 44.2694 22.3011C44.2694 22.6657 44.3274 23.0043 44.4434 23.3168C44.5594 23.6293 44.7381 23.8814 44.9796 24.0732C45.2211 24.2649 45.5288 24.3608 45.9029 24.3608ZM53.5174 20.767L52.7646 20.9801C52.7172 20.8546 52.6474 20.7327 52.555 20.6143C52.4651 20.4936 52.342 20.3942 52.1857 20.3161C52.0295 20.2379 51.8294 20.1989 51.5856 20.1989C51.2518 20.1989 50.9736 20.2758 50.7511 20.4297C50.5309 20.5812 50.4208 20.7741 50.4208 21.0085C50.4208 21.2169 50.4966 21.3814 50.6481 21.5021C50.7996 21.6229 51.0363 21.7235 51.3583 21.804L52.168 22.0028C52.6557 22.1212 53.0191 22.3023 53.2582 22.5462C53.4973 22.7876 53.6168 23.099 53.6168 23.4801C53.6168 23.7926 53.5269 24.072 53.3469 24.3182C53.1694 24.5644 52.9208 24.7585 52.6012 24.9006C52.2816 25.0426 51.9099 25.1136 51.4862 25.1136C50.9298 25.1136 50.4693 24.9929 50.1048 24.7514C49.7402 24.5099 49.5094 24.1572 49.4123 23.6932L50.2077 23.4943C50.2835 23.7879 50.4267 24.008 50.6374 24.1548C50.8505 24.3016 51.1287 24.375 51.4719 24.375C51.8626 24.375 52.1727 24.2921 52.4023 24.1264C52.6344 23.9583 52.7504 23.7571 52.7504 23.5227C52.7504 23.3333 52.6841 23.1747 52.5515 23.0469C52.4189 22.9167 52.2153 22.8196 51.9407 22.7557L51.0316 22.5426C50.5321 22.4242 50.1651 22.2408 49.9308 21.9922C49.6987 21.7412 49.5827 21.4276 49.5827 21.0511C49.5827 20.7434 49.6692 20.4711 49.842 20.2344C50.0172 19.9976 50.2551 19.8118 50.5558 19.6768C50.8588 19.5419 51.2021 19.4744 51.5856 19.4744C52.1254 19.4744 52.5491 19.5928 52.8569 19.8295C53.167 20.0663 53.3872 20.3788 53.5174 20.767ZM57.1653 25.1136C56.6397 25.1136 56.1864 24.9976 55.8052 24.7656C55.4264 24.5312 55.1341 24.2045 54.9281 23.7855C54.7245 23.3641 54.6227 22.8741 54.6227 22.3153C54.6227 21.7566 54.7245 21.2642 54.9281 20.8381C55.1341 20.4096 55.4205 20.0758 55.7875 19.8366C56.1568 19.5952 56.5877 19.4744 57.0801 19.4744C57.3642 19.4744 57.6447 19.5218 57.9217 19.6165C58.1987 19.7112 58.4508 19.8651 58.6781 20.0781C58.9054 20.2888 59.0865 20.5682 59.2214 20.9162C59.3564 21.2642 59.4238 21.6927 59.4238 22.2017V22.5568H55.2193V21.8324H58.5716C58.5716 21.5246 58.51 21.25 58.3869 21.0085C58.2662 20.767 58.0933 20.5765 57.8684 20.4368C57.6459 20.2971 57.3831 20.2273 57.0801 20.2273C56.7463 20.2273 56.4574 20.3101 56.2136 20.4759C55.9721 20.6392 55.7863 20.8523 55.6561 21.1151C55.5259 21.3778 55.4608 21.6596 55.4608 21.9602V22.4432C55.4608 22.8551 55.5318 23.2043 55.6738 23.4908C55.8182 23.7749 56.0183 23.9915 56.274 24.1406C56.5297 24.2874 56.8268 24.3608 57.1653 24.3608C57.3855 24.3608 57.5843 24.33 57.7619 24.2685C57.9418 24.2045 58.0969 24.1098 58.2271 23.9844C58.3573 23.8565 58.4579 23.6979 58.5289 23.5085L59.3386 23.7358C59.2534 24.0104 59.1101 24.2519 58.9089 24.4602C58.7077 24.6662 58.4591 24.8272 58.1632 24.9432C57.8672 25.0568 57.5346 25.1136 57.1653 25.1136ZM63.0708 19.5455V20.2557H60.2441V19.5455H63.0708ZM61.068 18.2386H61.9061V23.4375C61.9061 23.6742 61.9404 23.8518 62.0091 23.9702C62.0801 24.0862 62.17 24.1643 62.2789 24.2045C62.3902 24.2424 62.5074 24.2614 62.6305 24.2614C62.7228 24.2614 62.7986 24.2566 62.8578 24.2472C62.917 24.2353 62.9643 24.2259 62.9998 24.2188L63.1703 24.9716C63.1135 24.9929 63.0342 25.0142 62.9324 25.0355C62.8306 25.0592 62.7015 25.071 62.5453 25.071C62.3085 25.071 62.0765 25.0201 61.8493 24.9183C61.6243 24.8165 61.4373 24.6615 61.2882 24.4531C61.1414 24.2448 61.068 23.982 61.068 23.6648V18.2386Z" fill="black"/>
</svg>
